<svg width="42" height="42" viewBox="0 0 42 42" fill="none" xmlns="http://www.w3.org/2000/svg">
<path d="M14.6723 0.0195166C15.4376 0.0248426 16.2025 0.0301657 16.9326 0.0301657H24.3617C25.0919 0.0301657 25.8568 0.0248426 26.6221 0.0195166C28.6825 0.00517771 30.7458 -0.00918199 32.1424 0.0802539C37.2264 0.405827 40.7325 3.48625 41.1833 8.72047C41.2902 10.6013 41.2876 12.8672 41.2846 15.5393V15.54C41.2841 15.9987 41.2835 16.4693 41.2835 16.952V24.381C41.2835 24.8637 41.2841 25.3343 41.2846 25.793C41.2876 28.4654 41.2902 30.7315 41.1833 32.6125C40.7325 37.8468 37.2264 40.9272 32.1424 41.2528C30.7458 41.3422 28.6825 41.3278 26.6221 41.3135C25.8568 41.3082 25.0919 41.3028 24.3617 41.3028H16.9326C16.2025 41.3028 15.4376 41.3082 14.6723 41.3135C12.6119 41.3278 10.5485 41.3422 9.15194 41.2528C4.06799 40.9272 0.561815 37.8468 0.111021 32.6125C0.00414382 30.7317 0.00672405 28.4659 0.00976896 25.7937V25.793C0.0102948 25.3343 0.0108328 24.8637 0.0108328 24.381V16.952C0.0108328 16.4693 0.0102948 15.9987 0.00976896 15.54V15.5393C0.00672405 12.8672 0.00414382 10.6013 0.111021 8.72047C0.561815 3.48625 4.06799 0.405827 9.15194 0.0802539C10.5485 -0.00918199 12.6119 0.00517771 14.6723 0.0195166Z" fill="url(#paint0_linear_24927_88)"/>
<defs>
<linearGradient id="paint0_linear_24927_88" x1="20.6472" y1="0.0088501" x2="20.6472" y2="41.3242" gradientUnits="userSpaceOnUse">
<stop stop-color="#A4C1FF"/>
<stop offset="1" stop-color="#0E78F9"/>
</linearGradient>
</defs>
</svg>
